<svg id="mermaid-svg" width="100%" xmlns="http://www.w3.org/2000/svg" style="max-width: 588.0703735351562px;" viewBox="0 0 588.0703735351562 802" role="graphics-document document" aria-roledescription="er" xmlns:xlink="http://www.w3.org/1999/xlink"><style xmlns="http://www.w3.org/1999/xhtml">@import url("https://cdnjs.cloudflare.com/ajax/libs/font-awesome/6.7.1/css/all.min.css");</style><style>#mermaid-svg{font-family:"trebuchet ms",verdana,arial,sans-serif;font-size:16px;fill:#ccc;}#mermaid-svg .error-icon{fill:#a44141;}#mermaid-svg .error-text{fill:#ddd;stroke:#ddd;}#mermaid-svg .edge-thickness-normal{stroke-width:1px;}#mermaid-svg .edge-thickness-thick{stroke-width:3.5px;}#mermaid-svg .edge-pattern-solid{stroke-dasharray:0;}#mermaid-svg .edge-thickness-invisible{stroke-width:0;fill:none;}#mermaid-svg .edge-pattern-dashed{stroke-dasharray:3;}#mermaid-svg .edge-pattern-dotted{stroke-dasharray:2;}#mermaid-svg .marker{fill:lightgrey;stroke:lightgrey;}#mermaid-svg .marker.cross{stroke:lightgrey;}#mermaid-svg svg{font-family:"trebuchet ms",verdana,arial,sans-serif;font-size:16px;}#mermaid-svg p{margin:0;}#mermaid-svg .entityBox{fill:#1f2020;stroke:#ccc;}#mermaid-svg .attributeBoxOdd{fill:hsl(0, 0%, 32%);stroke:#ccc;}#mermaid-svg .attributeBoxEven{fill:hsl(0, 0%, 22%);stroke:#ccc;}#mermaid-svg .relationshipLabelBox{fill:hsl(20, 1.5873015873%, 12.3529411765%);opacity:0.7;background-color:hsl(20, 1.5873015873%, 12.3529411765%);}#mermaid-svg .relationshipLabelBox rect{opacity:0.5;}#mermaid-svg .relationshipLine{stroke:lightgrey;}#mermaid-svg .entityTitleText{text-anchor:middle;font-size:18px;fill:#ccc;}#mermaid-svg #MD_PARENT_START{fill:#f5f5f5!important;stroke:lightgrey!important;stroke-width:1;}#mermaid-svg #MD_PARENT_END{fill:#f5f5f5!important;stroke:lightgrey!important;stroke-width:1;}#mermaid-svg :root{--mermaid-font-family:"trebuchet ms",verdana,arial,sans-serif;}</style><g/><defs><marker id="MD_PARENT_START" refX="0" refY="7" markerWidth="190" markerHeight="240" orient="auto"><path d="M 18,7 L9,13 L1,7 L9,1 Z"/></marker></defs><defs><marker id="MD_PARENT_END" refX="19" refY="7" markerWidth="20" markerHeight="28" orient="auto"><path d="M 18,7 L9,13 L1,7 L9,1 Z"/></marker></defs><defs><marker id="ONLY_ONE_START" refX="0" refY="9" markerWidth="18" markerHeight="18" orient="auto"><path stroke="gray" fill="none" d="M9,0 L9,18 M15,0 L15,18"/></marker></defs><defs><marker id="ONLY_ONE_END" refX="18" refY="9" markerWidth="18" markerHeight="18" orient="auto"><path stroke="gray" fill="none" d="M3,0 L3,18 M9,0 L9,18"/></marker></defs><defs><marker id="ZERO_OR_ONE_START" refX="0" refY="9" markerWidth="30" markerHeight="18" orient="auto"><circle stroke="gray" fill="white" cx="21" cy="9" r="6"/><path stroke="gray" fill="none" d="M9,0 L9,18"/></marker></defs><defs><marker id="ZERO_OR_ONE_END" refX="30" refY="9" markerWidth="30" markerHeight="18" orient="auto"><circle stroke="gray" fill="white" cx="9" cy="9" r="6"/><path stroke="gray" fill="none" d="M21,0 L21,18"/></marker></defs><defs><marker id="ONE_OR_MORE_START" refX="18" refY="18" markerWidth="45" markerHeight="36" orient="auto"><path stroke="gray" fill="none" d="M0,18 Q 18,0 36,18 Q 18,36 0,18 M42,9 L42,27"/></marker></defs><defs><marker id="ONE_OR_MORE_END" refX="27" refY="18" markerWidth="45" markerHeight="36" orient="auto"><path stroke="gray" fill="none" d="M3,9 L3,27 M9,18 Q27,0 45,18 Q27,36 9,18"/></marker></defs><defs><marker id="ZERO_OR_MORE_START" refX="18" refY="18" markerWidth="57" markerHeight="36" orient="auto"><circle stroke="gray" fill="white" cx="48" cy="18" r="6"/><path stroke="gray" fill="none" d="M0,18 Q18,0 36,18 Q18,36 0,18"/></marker></defs><defs><marker id="ZERO_OR_MORE_END" refX="39" refY="18" markerWidth="57" markerHeight="36" orient="auto"><circle stroke="gray" fill="white" cx="9" cy="18" r="6"/><path stroke="gray" fill="none" d="M21,18 Q39,0 57,18 Q39,36 21,18"/></marker></defs><path class="er relationshipLine" d="M138.443,189L138.443,199.167C138.443,209.333,138.443,229.667,146.777,248.167C155.111,266.667,171.78,283.333,180.114,291.667L188.448,300" marker-end="url(#ZERO_OR_MORE_END)" marker-start="url(#ONLY_ONE_START)" style="stroke: gray; fill: none;"/><path class="er relationshipLine" d="M462.478,200L462.478,208.333C462.478,216.667,462.478,233.333,454.144,250C445.809,266.667,429.141,283.333,420.807,291.667L412.472,300" marker-end="url(#ZERO_OR_MORE_END)" marker-start="url(#ONLY_ONE_START)" style="stroke: gray; fill: none;"/><path class="er relationshipLine" d="M300.46,524L300.46,532.333C300.46,540.667,300.46,557.333,300.46,574C300.46,590.667,300.46,607.333,300.46,615.667L300.46,624" marker-end="url(#ZERO_OR_MORE_END)" marker-start="url(#ONLY_ONE_START)" style="stroke: gray; fill: none;"/><g id="entity-USER-6e7e2962-0c6f-577d-a7fd-2ce3a0cfd2c8" transform="translate(20,31 )"><rect class="er entityBox" x="0" y="0" width="236.8853759765625" height="158"/><text class="er entityLabel" id="text-entity-USER-6e7e2962-0c6f-577d-a7fd-2ce3a0cfd2c8" x="0" y="0" transform="translate(118.44268798828125,12)" style="dominant-baseline: middle; text-anchor: middle; font-size: 12px;">USER</text><rect class="er attributeBoxOdd" x="0" y="24" width="54.04840087890625" height="22"/><text class="er entityLabel" id="text-entity-USER-6e7e2962-0c6f-577d-a7fd-2ce3a0cfd2c8-attr-1-type" x="0" y="0" transform="translate(5,35)" style="dominant-baseline: middle; font-size: 10.2px;">String</text><rect class="er attributeBoxOdd" x="54.04840087890625" y="24" width="57.59375" height="22"/><text class="er entityLabel" id="text-entity-USER-6e7e2962-0c6f-577d-a7fd-2ce3a0cfd2c8-attr-1-name" x="0" y="0" transform="translate(59.04840087890625,35)" style="dominant-baseline: middle; font-size: 10.2px;">id</text><rect class="er attributeBoxOdd" x="111.64215087890625" y="24" width="21.68072509765625" height="22"/><text class="er entityLabel" id="text-entity-USER-6e7e2962-0c6f-577d-a7fd-2ce3a0cfd2c8-attr-1-key" x="0" y="0" transform="translate(116.64215087890625,35)" style="dominant-baseline: middle; font-size: 10.2px;">PK</text><rect class="er attributeBoxOdd" x="133.3228759765625" y="24" width="103.5625" height="22"/><text class="er entityLabel" id="text-entity-USER-6e7e2962-0c6f-577d-a7fd-2ce3a0cfd2c8-attr-1-comment" x="0" y="0" transform="translate(138.3228759765625,35)" style="dominant-baseline: middle; font-size: 10.2px;">Primary Key</text><rect class="er attributeBoxEven" x="0" y="46" width="54.04840087890625" height="22"/><text class="er entityLabel" id="text-entity-USER-6e7e2962-0c6f-577d-a7fd-2ce3a0cfd2c8-attr-2-type" x="0" y="0" transform="translate(5,57)" style="dominant-baseline: middle; font-size: 10.2px;">String</text><rect class="er attributeBoxEven" x="54.04840087890625" y="46" width="57.59375" height="22"/><text class="er entityLabel" id="text-entity-USER-6e7e2962-0c6f-577d-a7fd-2ce3a0cfd2c8-attr-2-name" x="0" y="0" transform="translate(59.04840087890625,57)" style="dominant-baseline: middle; font-size: 10.2px;">email</text><rect class="er attributeBoxEven" x="111.64215087890625" y="46" width="21.68072509765625" height="22"/><text class="er entityLabel" id="text-entity-USER-6e7e2962-0c6f-577d-a7fd-2ce3a0cfd2c8-attr-2-key" x="0" y="0" transform="translate(116.64215087890625,57)" style="dominant-baseline: middle; font-size: 10.2px;"/><rect class="er attributeBoxEven" x="133.3228759765625" y="46" width="103.5625" height="22"/><text class="er entityLabel" id="text-entity-USER-6e7e2962-0c6f-577d-a7fd-2ce3a0cfd2c8-attr-2-comment" x="0" y="0" transform="translate(138.3228759765625,57)" style="dominant-baseline: middle; font-size: 10.2px;">Unique</text><rect class="er attributeBoxOdd" x="0" y="68" width="54.04840087890625" height="22"/><text class="er entityLabel" id="text-entity-USER-6e7e2962-0c6f-577d-a7fd-2ce3a0cfd2c8-attr-3-type" x="0" y="0" transform="translate(5,79)" style="dominant-baseline: middle; font-size: 10.2px;">String</text><rect class="er attributeBoxOdd" x="54.04840087890625" y="68" width="57.59375" height="22"/><text class="er entityLabel" id="text-entity-USER-6e7e2962-0c6f-577d-a7fd-2ce3a0cfd2c8-attr-3-name" x="0" y="0" transform="translate(59.04840087890625,79)" style="dominant-baseline: middle; font-size: 10.2px;">name</text><rect class="er attributeBoxOdd" x="111.64215087890625" y="68" width="21.68072509765625" height="22"/><text class="er entityLabel" id="text-entity-USER-6e7e2962-0c6f-577d-a7fd-2ce3a0cfd2c8-attr-3-key" x="0" y="0" transform="translate(116.64215087890625,79)" style="dominant-baseline: middle; font-size: 10.2px;"/><rect class="er attributeBoxOdd" x="133.3228759765625" y="68" width="103.5625" height="22"/><text class="er entityLabel" id="text-entity-USER-6e7e2962-0c6f-577d-a7fd-2ce3a0cfd2c8-attr-3-comment" x="0" y="0" transform="translate(138.3228759765625,79)" style="dominant-baseline: middle; font-size: 10.2px;">Optional</text><rect class="er attributeBoxEven" x="0" y="90" width="54.04840087890625" height="22"/><text class="er entityLabel" id="text-entity-USER-6e7e2962-0c6f-577d-a7fd-2ce3a0cfd2c8-attr-4-type" x="0" y="0" transform="translate(5,101)" style="dominant-baseline: middle; font-size: 10.2px;">Enum</text><rect class="er attributeBoxEven" x="54.04840087890625" y="90" width="57.59375" height="22"/><text class="er entityLabel" id="text-entity-USER-6e7e2962-0c6f-577d-a7fd-2ce3a0cfd2c8-attr-4-name" x="0" y="0" transform="translate(59.04840087890625,101)" style="dominant-baseline: middle; font-size: 10.2px;">role</text><rect class="er attributeBoxEven" x="111.64215087890625" y="90" width="21.68072509765625" height="22"/><text class="er entityLabel" id="text-entity-USER-6e7e2962-0c6f-577d-a7fd-2ce3a0cfd2c8-attr-4-key" x="0" y="0" transform="translate(116.64215087890625,101)" style="dominant-baseline: middle; font-size: 10.2px;"/><rect class="er attributeBoxEven" x="133.3228759765625" y="90" width="103.5625" height="22"/><text class="er entityLabel" id="text-entity-USER-6e7e2962-0c6f-577d-a7fd-2ce3a0cfd2c8-attr-4-comment" x="0" y="0" transform="translate(138.3228759765625,101)" style="dominant-baseline: middle; font-size: 10.2px;">Values: USER, ADMIN</text><rect class="er attributeBoxOdd" x="0" y="112" width="54.04840087890625" height="23"/><text class="er entityLabel" id="text-entity-USER-6e7e2962-0c6f-577d-a7fd-2ce3a0cfd2c8-attr-5-type" x="0" y="0" transform="translate(5,123.5)" style="dominant-baseline: middle; font-size: 10.2px;">DateTime</text><rect class="er attributeBoxOdd" x="54.04840087890625" y="112" width="57.59375" height="23"/><text class="er entityLabel" id="text-entity-USER-6e7e2962-0c6f-577d-a7fd-2ce3a0cfd2c8-attr-5-name" x="0" y="0" transform="translate(59.04840087890625,123.5)" style="dominant-baseline: middle; font-size: 10.2px;">createdAt</text><rect class="er attributeBoxOdd" x="111.64215087890625" y="112" width="21.68072509765625" height="23"/><text class="er entityLabel" id="text-entity-USER-6e7e2962-0c6f-577d-a7fd-2ce3a0cfd2c8-attr-5-key" x="0" y="0" transform="translate(116.64215087890625,123.5)" style="dominant-baseline: middle; font-size: 10.2px;"/><rect class="er attributeBoxOdd" x="133.3228759765625" y="112" width="103.5625" height="23"/><text class="er entityLabel" id="text-entity-USER-6e7e2962-0c6f-577d-a7fd-2ce3a0cfd2c8-attr-5-comment" x="0" y="0" transform="translate(138.3228759765625,123.5)" style="dominant-baseline: middle; font-size: 10.2px;">Default: now()</text><rect class="er attributeBoxEven" x="0" y="135" width="54.04840087890625" height="23"/><text class="er entityLabel" id="text-entity-USER-6e7e2962-0c6f-577d-a7fd-2ce3a0cfd2c8-attr-6-type" x="0" y="0" transform="translate(5,146.5)" style="dominant-baseline: middle; font-size: 10.2px;">DateTime</text><rect class="er attributeBoxEven" x="54.04840087890625" y="135" width="57.59375" height="23"/><text class="er entityLabel" id="text-entity-USER-6e7e2962-0c6f-577d-a7fd-2ce3a0cfd2c8-attr-6-name" x="0" y="0" transform="translate(59.04840087890625,146.5)" style="dominant-baseline: middle; font-size: 10.2px;">updatedAt</text><rect class="er attributeBoxEven" x="111.64215087890625" y="135" width="21.68072509765625" height="23"/><text class="er entityLabel" id="text-entity-USER-6e7e2962-0c6f-577d-a7fd-2ce3a0cfd2c8-attr-6-key" x="0" y="0" transform="translate(116.64215087890625,146.5)" style="dominant-baseline: middle; font-size: 10.2px;"/><rect class="er attributeBoxEven" x="133.3228759765625" y="135" width="103.5625" height="23"/><text class="er entityLabel" id="text-entity-USER-6e7e2962-0c6f-577d-a7fd-2ce3a0cfd2c8-attr-6-comment" x="0" y="0" transform="translate(138.3228759765625,146.5)" style="dominant-baseline: middle; font-size: 10.2px;">Default: now()</text></g><g id="entity-CAR-d58c1c43-b180-5c15-ae3f-ebb2bacf180b" transform="translate(356.8853759765625,20 )"><rect class="er entityBox" x="0" y="0" width="211.1849822998047" height="180"/><text class="er entityLabel" id="text-entity-CAR-d58c1c43-b180-5c15-ae3f-ebb2bacf180b" x="0" y="0" transform="translate(105.59249114990234,12)" style="dominant-baseline: middle; text-anchor: middle; font-size: 12px;">CAR</text><rect class="er attributeBoxOdd" x="0" y="24" width="54.04840087890625" height="22"/><text class="er entityLabel" id="text-entity-CAR-d58c1c43-b180-5c15-ae3f-ebb2bacf180b-attr-1-type" x="0" y="0" transform="translate(5,35)" style="dominant-baseline: middle; font-size: 10.2px;">String</text><rect class="er attributeBoxOdd" x="54.04840087890625" y="24" width="58.75895690917969" height="22"/><text class="er entityLabel" id="text-entity-CAR-d58c1c43-b180-5c15-ae3f-ebb2bacf180b-attr-1-name" x="0" y="0" transform="translate(59.04840087890625,35)" style="dominant-baseline: middle; font-size: 10.2px;">id</text><rect class="er attributeBoxOdd" x="112.80735778808594" y="24" width="21.68072509765625" height="22"/><text class="er entityLabel" id="text-entity-CAR-d58c1c43-b180-5c15-ae3f-ebb2bacf180b-attr-1-key" x="0" y="0" transform="translate(117.80735778808594,35)" style="dominant-baseline: middle; font-size: 10.2px;">PK</text><rect class="er attributeBoxOdd" x="134.4880828857422" y="24" width="76.6968994140625" height="22"/><text class="er entityLabel" id="text-entity-CAR-d58c1c43-b180-5c15-ae3f-ebb2bacf180b-attr-1-comment" x="0" y="0" transform="translate(139.4880828857422,35)" style="dominant-baseline: middle; font-size: 10.2px;">Primary Key</text><rect class="er attributeBoxEven" x="0" y="46" width="54.04840087890625" height="22"/><text class="er entityLabel" id="text-entity-CAR-d58c1c43-b180-5c15-ae3f-ebb2bacf180b-attr-2-type" x="0" y="0" transform="translate(5,57)" style="dominant-baseline: middle; font-size: 10.2px;">String</text><rect class="er attributeBoxEven" x="54.04840087890625" y="46" width="58.75895690917969" height="22"/><text class="er entityLabel" id="text-entity-CAR-d58c1c43-b180-5c15-ae3f-ebb2bacf180b-attr-2-name" x="0" y="0" transform="translate(59.04840087890625,57)" style="dominant-baseline: middle; font-size: 10.2px;">make</text><rect class="er attributeBoxEven" x="112.80735778808594" y="46" width="21.68072509765625" height="22"/><text class="er entityLabel" id="text-entity-CAR-d58c1c43-b180-5c15-ae3f-ebb2bacf180b-attr-2-key" x="0" y="0" transform="translate(117.80735778808594,57)" style="dominant-baseline: middle; font-size: 10.2px;"/><rect class="er attributeBoxEven" x="134.4880828857422" y="46" width="76.6968994140625" height="22"/><text class="er entityLabel" id="text-entity-CAR-d58c1c43-b180-5c15-ae3f-ebb2bacf180b-attr-2-comment" x="0" y="0" transform="translate(139.4880828857422,57)" style="dominant-baseline: middle; font-size: 10.2px;"/><rect class="er attributeBoxOdd" x="0" y="68" width="54.04840087890625" height="22"/><text class="er entityLabel" id="text-entity-CAR-d58c1c43-b180-5c15-ae3f-ebb2bacf180b-attr-3-type" x="0" y="0" transform="translate(5,79)" style="dominant-baseline: middle; font-size: 10.2px;">String</text><rect class="er attributeBoxOdd" x="54.04840087890625" y="68" width="58.75895690917969" height="22"/><text class="er entityLabel" id="text-entity-CAR-d58c1c43-b180-5c15-ae3f-ebb2bacf180b-attr-3-name" x="0" y="0" transform="translate(59.04840087890625,79)" style="dominant-baseline: middle; font-size: 10.2px;">model</text><rect class="er attributeBoxOdd" x="112.80735778808594" y="68" width="21.68072509765625" height="22"/><text class="er entityLabel" id="text-entity-CAR-d58c1c43-b180-5c15-ae3f-ebb2bacf180b-attr-3-key" x="0" y="0" transform="translate(117.80735778808594,79)" style="dominant-baseline: middle; font-size: 10.2px;"/><rect class="er attributeBoxOdd" x="134.4880828857422" y="68" width="76.6968994140625" height="22"/><text class="er entityLabel" id="text-entity-CAR-d58c1c43-b180-5c15-ae3f-ebb2bacf180b-attr-3-comment" x="0" y="0" transform="translate(139.4880828857422,79)" style="dominant-baseline: middle; font-size: 10.2px;"/><rect class="er attributeBoxEven" x="0" y="90" width="54.04840087890625" height="22"/><text class="er entityLabel" id="text-entity-CAR-d58c1c43-b180-5c15-ae3f-ebb2bacf180b-attr-4-type" x="0" y="0" transform="translate(5,101)" style="dominant-baseline: middle; font-size: 10.2px;">String</text><rect class="er attributeBoxEven" x="54.04840087890625" y="90" width="58.75895690917969" height="22"/><text class="er entityLabel" id="text-entity-CAR-d58c1c43-b180-5c15-ae3f-ebb2bacf180b-attr-4-name" x="0" y="0" transform="translate(59.04840087890625,101)" style="dominant-baseline: middle; font-size: 10.2px;">imageUrl</text><rect class="er attributeBoxEven" x="112.80735778808594" y="90" width="21.68072509765625" height="22"/><text class="er entityLabel" id="text-entity-CAR-d58c1c43-b180-5c15-ae3f-ebb2bacf180b-attr-4-key" x="0" y="0" transform="translate(117.80735778808594,101)" style="dominant-baseline: middle; font-size: 10.2px;"/><rect class="er attributeBoxEven" x="134.4880828857422" y="90" width="76.6968994140625" height="22"/><text class="er entityLabel" id="text-entity-CAR-d58c1c43-b180-5c15-ae3f-ebb2bacf180b-attr-4-comment" x="0" y="0" transform="translate(139.4880828857422,101)" style="dominant-baseline: middle; font-size: 10.2px;">Optional</text><rect class="er attributeBoxOdd" x="0" y="112" width="54.04840087890625" height="22"/><text class="er entityLabel" id="text-entity-CAR-d58c1c43-b180-5c15-ae3f-ebb2bacf180b-attr-5-type" x="0" y="0" transform="translate(5,123)" style="dominant-baseline: middle; font-size: 10.2px;">Boolean</text><rect class="er attributeBoxOdd" x="54.04840087890625" y="112" width="58.75895690917969" height="22"/><text class="er entityLabel" id="text-entity-CAR-d58c1c43-b180-5c15-ae3f-ebb2bacf180b-attr-5-name" x="0" y="0" transform="translate(59.04840087890625,123)" style="dominant-baseline: middle; font-size: 10.2px;">isAvailable</text><rect class="er attributeBoxOdd" x="112.80735778808594" y="112" width="21.68072509765625" height="22"/><text class="er entityLabel" id="text-entity-CAR-d58c1c43-b180-5c15-ae3f-ebb2bacf180b-attr-5-key" x="0" y="0" transform="translate(117.80735778808594,123)" style="dominant-baseline: middle; font-size: 10.2px;"/><rect class="er attributeBoxOdd" x="134.4880828857422" y="112" width="76.6968994140625" height="22"/><text class="er entityLabel" id="text-entity-CAR-d58c1c43-b180-5c15-ae3f-ebb2bacf180b-attr-5-comment" x="0" y="0" transform="translate(139.4880828857422,123)" style="dominant-baseline: middle; font-size: 10.2px;">Default: true</text><rect class="er attributeBoxEven" x="0" y="134" width="54.04840087890625" height="23"/><text class="er entityLabel" id="text-entity-CAR-d58c1c43-b180-5c15-ae3f-ebb2bacf180b-attr-6-type" x="0" y="0" transform="translate(5,145.5)" style="dominant-baseline: middle; font-size: 10.2px;">DateTime</text><rect class="er attributeBoxEven" x="54.04840087890625" y="134" width="58.75895690917969" height="23"/><text class="er entityLabel" id="text-entity-CAR-d58c1c43-b180-5c15-ae3f-ebb2bacf180b-attr-6-name" x="0" y="0" transform="translate(59.04840087890625,145.5)" style="dominant-baseline: middle; font-size: 10.2px;">createdAt</text><rect class="er attributeBoxEven" x="112.80735778808594" y="134" width="21.68072509765625" height="23"/><text class="er entityLabel" id="text-entity-CAR-d58c1c43-b180-5c15-ae3f-ebb2bacf180b-attr-6-key" x="0" y="0" transform="translate(117.80735778808594,145.5)" style="dominant-baseline: middle; font-size: 10.2px;"/><rect class="er attributeBoxEven" x="134.4880828857422" y="134" width="76.6968994140625" height="23"/><text class="er entityLabel" id="text-entity-CAR-d58c1c43-b180-5c15-ae3f-ebb2bacf180b-attr-6-comment" x="0" y="0" transform="translate(139.4880828857422,145.5)" style="dominant-baseline: middle; font-size: 10.2px;">Default: now()</text><rect class="er attributeBoxOdd" x="0" y="157" width="54.04840087890625" height="23"/><text class="er entityLabel" id="text-entity-CAR-d58c1c43-b180-5c15-ae3f-ebb2bacf180b-attr-7-type" x="0" y="0" transform="translate(5,168.5)" style="dominant-baseline: middle; font-size: 10.2px;">DateTime</text><rect class="er attributeBoxOdd" x="54.04840087890625" y="157" width="58.75895690917969" height="23"/><text class="er entityLabel" id="text-entity-CAR-d58c1c43-b180-5c15-ae3f-ebb2bacf180b-attr-7-name" x="0" y="0" transform="translate(59.04840087890625,168.5)" style="dominant-baseline: middle; font-size: 10.2px;">updatedAt</text><rect class="er attributeBoxOdd" x="112.80735778808594" y="157" width="21.68072509765625" height="23"/><text class="er entityLabel" id="text-entity-CAR-d58c1c43-b180-5c15-ae3f-ebb2bacf180b-attr-7-key" x="0" y="0" transform="translate(117.80735778808594,168.5)" style="dominant-baseline: middle; font-size: 10.2px;"/><rect class="er attributeBoxOdd" x="134.4880828857422" y="157" width="76.6968994140625" height="23"/><text class="er entityLabel" id="text-entity-CAR-d58c1c43-b180-5c15-ae3f-ebb2bacf180b-attr-7-comment" x="0" y="0" transform="translate(139.4880828857422,168.5)" style="dominant-baseline: middle; font-size: 10.2px;">Default: now()</text></g><g id="entity-RESERVATION-5109fe3f-ee2c-5a88-9977-a90a113e1f41" transform="translate(101.3379020690918,300 )"><rect class="er entityBox" x="0" y="0" width="398.2447509765625" height="224"/><text class="er entityLabel" id="text-entity-RESERVATION-5109fe3f-ee2c-5a88-9977-a90a113e1f41" x="0" y="0" transform="translate(199.12237548828125,12)" style="dominant-baseline: middle; text-anchor: middle; font-size: 12px;">RESERVATION</text><rect class="er attributeBoxOdd" x="0" y="24" width="54.04840087890625" height="22"/><text class="er entityLabel" id="text-entity-RESERVATION-5109fe3f-ee2c-5a88-9977-a90a113e1f41-attr-1-type" x="0" y="0" transform="translate(5,35)" style="dominant-baseline: middle; font-size: 10.2px;">String</text><rect class="er attributeBoxOdd" x="54.04840087890625" y="24" width="57.59375" height="22"/><text class="er entityLabel" id="text-entity-RESERVATION-5109fe3f-ee2c-5a88-9977-a90a113e1f41-attr-1-name" x="0" y="0" transform="translate(59.04840087890625,35)" style="dominant-baseline: middle; font-size: 10.2px;">id</text><rect class="er attributeBoxOdd" x="111.64215087890625" y="24" width="21.68072509765625" height="22"/><text class="er entityLabel" id="text-entity-RESERVATION-5109fe3f-ee2c-5a88-9977-a90a113e1f41-attr-1-key" x="0" y="0" transform="translate(116.64215087890625,35)" style="dominant-baseline: middle; font-size: 10.2px;">PK</text><rect class="er attributeBoxOdd" x="133.3228759765625" y="24" width="264.921875" height="22"/><text class="er entityLabel" id="text-entity-RESERVATION-5109fe3f-ee2c-5a88-9977-a90a113e1f41-attr-1-comment" x="0" y="0" transform="translate(138.3228759765625,35)" style="dominant-baseline: middle; font-size: 10.2px;">Primary Key</text><rect class="er attributeBoxEven" x="0" y="46" width="54.04840087890625" height="22"/><text class="er entityLabel" id="text-entity-RESERVATION-5109fe3f-ee2c-5a88-9977-a90a113e1f41-attr-2-type" x="0" y="0" transform="translate(5,57)" style="dominant-baseline: middle; font-size: 10.2px;">Enum</text><rect class="er attributeBoxEven" x="54.04840087890625" y="46" width="57.59375" height="22"/><text class="er entityLabel" id="text-entity-RESERVATION-5109fe3f-ee2c-5a88-9977-a90a113e1f41-attr-2-name" x="0" y="0" transform="translate(59.04840087890625,57)" style="dominant-baseline: middle; font-size: 10.2px;">status</text><rect class="er attributeBoxEven" x="111.64215087890625" y="46" width="21.68072509765625" height="22"/><text class="er entityLabel" id="text-entity-RESERVATION-5109fe3f-ee2c-5a88-9977-a90a113e1f41-attr-2-key" x="0" y="0" transform="translate(116.64215087890625,57)" style="dominant-baseline: middle; font-size: 10.2px;"/><rect class="er attributeBoxEven" x="133.3228759765625" y="46" width="264.921875" height="22"/><text class="er entityLabel" id="text-entity-RESERVATION-5109fe3f-ee2c-5a88-9977-a90a113e1f41-attr-2-comment" x="0" y="0" transform="translate(138.3228759765625,57)" style="dominant-baseline: middle; font-size: 10.2px;">Values: PENDING, CONFIRMED, CANCELLED, COMPLETED</text><rect class="er attributeBoxOdd" x="0" y="68" width="54.04840087890625" height="22"/><text class="er entityLabel" id="text-entity-RESERVATION-5109fe3f-ee2c-5a88-9977-a90a113e1f41-attr-3-type" x="0" y="0" transform="translate(5,79)" style="dominant-baseline: middle; font-size: 10.2px;">DateTime</text><rect class="er attributeBoxOdd" x="54.04840087890625" y="68" width="57.59375" height="22"/><text class="er entityLabel" id="text-entity-RESERVATION-5109fe3f-ee2c-5a88-9977-a90a113e1f41-attr-3-name" x="0" y="0" transform="translate(59.04840087890625,79)" style="dominant-baseline: middle; font-size: 10.2px;">startDate</text><rect class="er attributeBoxOdd" x="111.64215087890625" y="68" width="21.68072509765625" height="22"/><text class="er entityLabel" id="text-entity-RESERVATION-5109fe3f-ee2c-5a88-9977-a90a113e1f41-attr-3-key" x="0" y="0" transform="translate(116.64215087890625,79)" style="dominant-baseline: middle; font-size: 10.2px;"/><rect class="er attributeBoxOdd" x="133.3228759765625" y="68" width="264.921875" height="22"/><text class="er entityLabel" id="text-entity-RESERVATION-5109fe3f-ee2c-5a88-9977-a90a113e1f41-attr-3-comment" x="0" y="0" transform="translate(138.3228759765625,79)" style="dominant-baseline: middle; font-size: 10.2px;"/><rect class="er attributeBoxEven" x="0" y="90" width="54.04840087890625" height="22"/><text class="er entityLabel" id="text-entity-RESERVATION-5109fe3f-ee2c-5a88-9977-a90a113e1f41-attr-4-type" x="0" y="0" transform="translate(5,101)" style="dominant-baseline: middle; font-size: 10.2px;">DateTime</text><rect class="er attributeBoxEven" x="54.04840087890625" y="90" width="57.59375" height="22"/><text class="er entityLabel" id="text-entity-RESERVATION-5109fe3f-ee2c-5a88-9977-a90a113e1f41-attr-4-name" x="0" y="0" transform="translate(59.04840087890625,101)" style="dominant-baseline: middle; font-size: 10.2px;">endDate</text><rect class="er attributeBoxEven" x="111.64215087890625" y="90" width="21.68072509765625" height="22"/><text class="er entityLabel" id="text-entity-RESERVATION-5109fe3f-ee2c-5a88-9977-a90a113e1f41-attr-4-key" x="0" y="0" transform="translate(116.64215087890625,101)" style="dominant-baseline: middle; font-size: 10.2px;"/><rect class="er attributeBoxEven" x="133.3228759765625" y="90" width="264.921875" height="22"/><text class="er entityLabel" id="text-entity-RESERVATION-5109fe3f-ee2c-5a88-9977-a90a113e1f41-attr-4-comment" x="0" y="0" transform="translate(138.3228759765625,101)" style="dominant-baseline: middle; font-size: 10.2px;"/><rect class="er attributeBoxOdd" x="0" y="112" width="54.04840087890625" height="22"/><text class="er entityLabel" id="text-entity-RESERVATION-5109fe3f-ee2c-5a88-9977-a90a113e1f41-attr-5-type" x="0" y="0" transform="translate(5,123)" style="dominant-baseline: middle; font-size: 10.2px;">Float</text><rect class="er attributeBoxOdd" x="54.04840087890625" y="112" width="57.59375" height="22"/><text class="er entityLabel" id="text-entity-RESERVATION-5109fe3f-ee2c-5a88-9977-a90a113e1f41-attr-5-name" x="0" y="0" transform="translate(59.04840087890625,123)" style="dominant-baseline: middle; font-size: 10.2px;">totalPrice</text><rect class="er attributeBoxOdd" x="111.64215087890625" y="112" width="21.68072509765625" height="22"/><text class="er entityLabel" id="text-entity-RESERVATION-5109fe3f-ee2c-5a88-9977-a90a113e1f41-attr-5-key" x="0" y="0" transform="translate(116.64215087890625,123)" style="dominant-baseline: middle; font-size: 10.2px;"/><rect class="er attributeBoxOdd" x="133.3228759765625" y="112" width="264.921875" height="22"/><text class="er entityLabel" id="text-entity-RESERVATION-5109fe3f-ee2c-5a88-9977-a90a113e1f41-attr-5-comment" x="0" y="0" transform="translate(138.3228759765625,123)" style="dominant-baseline: middle; font-size: 10.2px;"/><rect class="er attributeBoxEven" x="0" y="134" width="54.04840087890625" height="22"/><text class="er entityLabel" id="text-entity-RESERVATION-5109fe3f-ee2c-5a88-9977-a90a113e1f41-attr-6-type" x="0" y="0" transform="translate(5,145)" style="dominant-baseline: middle; font-size: 10.2px;">String</text><rect class="er attributeBoxEven" x="54.04840087890625" y="134" width="57.59375" height="22"/><text class="er entityLabel" id="text-entity-RESERVATION-5109fe3f-ee2c-5a88-9977-a90a113e1f41-attr-6-name" x="0" y="0" transform="translate(59.04840087890625,145)" style="dominant-baseline: middle; font-size: 10.2px;">userId</text><rect class="er attributeBoxEven" x="111.64215087890625" y="134" width="21.68072509765625" height="22"/><text class="er entityLabel" id="text-entity-RESERVATION-5109fe3f-ee2c-5a88-9977-a90a113e1f41-attr-6-key" x="0" y="0" transform="translate(116.64215087890625,145)" style="dominant-baseline: middle; font-size: 10.2px;">FK</text><rect class="er attributeBoxEven" x="133.3228759765625" y="134" width="264.921875" height="22"/><text class="er entityLabel" id="text-entity-RESERVATION-5109fe3f-ee2c-5a88-9977-a90a113e1f41-attr-6-comment" x="0" y="0" transform="translate(138.3228759765625,145)" style="dominant-baseline: middle; font-size: 10.2px;">Foreign Key to USER</text><rect class="er attributeBoxOdd" x="0" y="156" width="54.04840087890625" height="22"/><text class="er entityLabel" id="text-entity-RESERVATION-5109fe3f-ee2c-5a88-9977-a90a113e1f41-attr-7-type" x="0" y="0" transform="translate(5,167)" style="dominant-baseline: middle; font-size: 10.2px;">String</text><rect class="er attributeBoxOdd" x="54.04840087890625" y="156" width="57.59375" height="22"/><text class="er entityLabel" id="text-entity-RESERVATION-5109fe3f-ee2c-5a88-9977-a90a113e1f41-attr-7-name" x="0" y="0" transform="translate(59.04840087890625,167)" style="dominant-baseline: middle; font-size: 10.2px;">carId</text><rect class="er attributeBoxOdd" x="111.64215087890625" y="156" width="21.68072509765625" height="22"/><text class="er entityLabel" id="text-entity-RESERVATION-5109fe3f-ee2c-5a88-9977-a90a113e1f41-attr-7-key" x="0" y="0" transform="translate(116.64215087890625,167)" style="dominant-baseline: middle; font-size: 10.2px;">FK</text><rect class="er attributeBoxOdd" x="133.3228759765625" y="156" width="264.921875" height="22"/><text class="er entityLabel" id="text-entity-RESERVATION-5109fe3f-ee2c-5a88-9977-a90a113e1f41-attr-7-comment" x="0" y="0" transform="translate(138.3228759765625,167)" style="dominant-baseline: middle; font-size: 10.2px;">Foreign Key to CAR</text><rect class="er attributeBoxEven" x="0" y="178" width="54.04840087890625" height="23"/><text class="er entityLabel" id="text-entity-RESERVATION-5109fe3f-ee2c-5a88-9977-a90a113e1f41-attr-8-type" x="0" y="0" transform="translate(5,189.5)" style="dominant-baseline: middle; font-size: 10.2px;">DateTime</text><rect class="er attributeBoxEven" x="54.04840087890625" y="178" width="57.59375" height="23"/><text class="er entityLabel" id="text-entity-RESERVATION-5109fe3f-ee2c-5a88-9977-a90a113e1f41-attr-8-name" x="0" y="0" transform="translate(59.04840087890625,189.5)" style="dominant-baseline: middle; font-size: 10.2px;">createdAt</text><rect class="er attributeBoxEven" x="111.64215087890625" y="178" width="21.68072509765625" height="23"/><text class="er entityLabel" id="text-entity-RESERVATION-5109fe3f-ee2c-5a88-9977-a90a113e1f41-attr-8-key" x="0" y="0" transform="translate(116.64215087890625,189.5)" style="dominant-baseline: middle; font-size: 10.2px;"/><rect class="er attributeBoxEven" x="133.3228759765625" y="178" width="264.921875" height="23"/><text class="er entityLabel" id="text-entity-RESERVATION-5109fe3f-ee2c-5a88-9977-a90a113e1f41-attr-8-comment" x="0" y="0" transform="translate(138.3228759765625,189.5)" style="dominant-baseline: middle; font-size: 10.2px;">Default: now()</text><rect class="er attributeBoxOdd" x="0" y="201" width="54.04840087890625" height="23"/><text class="er entityLabel" id="text-entity-RESERVATION-5109fe3f-ee2c-5a88-9977-a90a113e1f41-attr-9-type" x="0" y="0" transform="translate(5,212.5)" style="dominant-baseline: middle; font-size: 10.2px;">DateTime</text><rect class="er attributeBoxOdd" x="54.04840087890625" y="201" width="57.59375" height="23"/><text class="er entityLabel" id="text-entity-RESERVATION-5109fe3f-ee2c-5a88-9977-a90a113e1f41-attr-9-name" x="0" y="0" transform="translate(59.04840087890625,212.5)" style="dominant-baseline: middle; font-size: 10.2px;">updatedAt</text><rect class="er attributeBoxOdd" x="111.64215087890625" y="201" width="21.68072509765625" height="23"/><text class="er entityLabel" id="text-entity-RESERVATION-5109fe3f-ee2c-5a88-9977-a90a113e1f41-attr-9-key" x="0" y="0" transform="translate(116.64215087890625,212.5)" style="dominant-baseline: middle; font-size: 10.2px;"/><rect class="er attributeBoxOdd" x="133.3228759765625" y="201" width="264.921875" height="23"/><text class="er entityLabel" id="text-entity-RESERVATION-5109fe3f-ee2c-5a88-9977-a90a113e1f41-attr-9-comment" x="0" y="0" transform="translate(138.3228759765625,212.5)" style="dominant-baseline: middle; font-size: 10.2px;">Default: now()</text></g><g id="entity-PAYMENT-9797eee8-7a01-5efe-aaa5-fb9a4f14957c" transform="translate(135.8925895690918,624 )"><rect class="er entityBox" x="0" y="0" width="329.1353759765625" height="158"/><text class="er entityLabel" id="text-entity-PAYMENT-9797eee8-7a01-5efe-aaa5-fb9a4f14957c" x="0" y="0" transform="translate(164.56768798828125,12)" style="dominant-baseline: middle; text-anchor: middle; font-size: 12px;">PAYMENT</text><rect class="er attributeBoxOdd" x="0" y="24" width="54.04840087890625" height="22"/><text class="er entityLabel" id="text-entity-PAYMENT-9797eee8-7a01-5efe-aaa5-fb9a4f14957c-attr-1-type" x="0" y="0" transform="translate(5,35)" style="dominant-baseline: middle; font-size: 10.2px;">String</text><rect class="er attributeBoxOdd" x="54.04840087890625" y="24" width="70" height="22"/><text class="er entityLabel" id="text-entity-PAYMENT-9797eee8-7a01-5efe-aaa5-fb9a4f14957c-attr-1-name" x="0" y="0" transform="translate(59.04840087890625,35)" style="dominant-baseline: middle; font-size: 10.2px;">id</text><rect class="er attributeBoxOdd" x="124.04840087890625" y="24" width="21.68072509765625" height="22"/><text class="er entityLabel" id="text-entity-PAYMENT-9797eee8-7a01-5efe-aaa5-fb9a4f14957c-attr-1-key" x="0" y="0" transform="translate(129.04840087890625,35)" style="dominant-baseline: middle; font-size: 10.2px;">PK</text><rect class="er attributeBoxOdd" x="145.7291259765625" y="24" width="183.40625" height="22"/><text class="er entityLabel" id="text-entity-PAYMENT-9797eee8-7a01-5efe-aaa5-fb9a4f14957c-attr-1-comment" x="0" y="0" transform="translate(150.7291259765625,35)" style="dominant-baseline: middle; font-size: 10.2px;">Primary Key</text><rect class="er attributeBoxEven" x="0" y="46" width="54.04840087890625" height="22"/><text class="er entityLabel" id="text-entity-PAYMENT-9797eee8-7a01-5efe-aaa5-fb9a4f14957c-attr-2-type" x="0" y="0" transform="translate(5,57)" style="dominant-baseline: middle; font-size: 10.2px;">Enum</text><rect class="er attributeBoxEven" x="54.04840087890625" y="46" width="70" height="22"/><text class="er entityLabel" id="text-entity-PAYMENT-9797eee8-7a01-5efe-aaa5-fb9a4f14957c-attr-2-name" x="0" y="0" transform="translate(59.04840087890625,57)" style="dominant-baseline: middle; font-size: 10.2px;">status</text><rect class="er attributeBoxEven" x="124.04840087890625" y="46" width="21.68072509765625" height="22"/><text class="er entityLabel" id="text-entity-PAYMENT-9797eee8-7a01-5efe-aaa5-fb9a4f14957c-attr-2-key" x="0" y="0" transform="translate(129.04840087890625,57)" style="dominant-baseline: middle; font-size: 10.2px;"/><rect class="er attributeBoxEven" x="145.7291259765625" y="46" width="183.40625" height="22"/><text class="er entityLabel" id="text-entity-PAYMENT-9797eee8-7a01-5efe-aaa5-fb9a4f14957c-attr-2-comment" x="0" y="0" transform="translate(150.7291259765625,57)" style="dominant-baseline: middle; font-size: 10.2px;">Values: PENDING, COMPLETED, FAILED</text><rect class="er attributeBoxOdd" x="0" y="68" width="54.04840087890625" height="22"/><text class="er entityLabel" id="text-entity-PAYMENT-9797eee8-7a01-5efe-aaa5-fb9a4f14957c-attr-3-type" x="0" y="0" transform="translate(5,79)" style="dominant-baseline: middle; font-size: 10.2px;">Float</text><rect class="er attributeBoxOdd" x="54.04840087890625" y="68" width="70" height="22"/><text class="er entityLabel" id="text-entity-PAYMENT-9797eee8-7a01-5efe-aaa5-fb9a4f14957c-attr-3-name" x="0" y="0" transform="translate(59.04840087890625,79)" style="dominant-baseline: middle; font-size: 10.2px;">amount</text><rect class="er attributeBoxOdd" x="124.04840087890625" y="68" width="21.68072509765625" height="22"/><text class="er entityLabel" id="text-entity-PAYMENT-9797eee8-7a01-5efe-aaa5-fb9a4f14957c-attr-3-key" x="0" y="0" transform="translate(129.04840087890625,79)" style="dominant-baseline: middle; font-size: 10.2px;"/><rect class="er attributeBoxOdd" x="145.7291259765625" y="68" width="183.40625" height="22"/><text class="er entityLabel" id="text-entity-PAYMENT-9797eee8-7a01-5efe-aaa5-fb9a4f14957c-attr-3-comment" x="0" y="0" transform="translate(150.7291259765625,79)" style="dominant-baseline: middle; font-size: 10.2px;"/><rect class="er attributeBoxEven" x="0" y="90" width="54.04840087890625" height="22"/><text class="er entityLabel" id="text-entity-PAYMENT-9797eee8-7a01-5efe-aaa5-fb9a4f14957c-attr-4-type" x="0" y="0" transform="translate(5,101)" style="dominant-baseline: middle; font-size: 10.2px;">String</text><rect class="er attributeBoxEven" x="54.04840087890625" y="90" width="70" height="22"/><text class="er entityLabel" id="text-entity-PAYMENT-9797eee8-7a01-5efe-aaa5-fb9a4f14957c-attr-4-name" x="0" y="0" transform="translate(59.04840087890625,101)" style="dominant-baseline: middle; font-size: 10.2px;">reservationId</text><rect class="er attributeBoxEven" x="124.04840087890625" y="90" width="21.68072509765625" height="22"/><text class="er entityLabel" id="text-entity-PAYMENT-9797eee8-7a01-5efe-aaa5-fb9a4f14957c-attr-4-key" x="0" y="0" transform="translate(129.04840087890625,101)" style="dominant-baseline: middle; font-size: 10.2px;">FK</text><rect class="er attributeBoxEven" x="145.7291259765625" y="90" width="183.40625" height="22"/><text class="er entityLabel" id="text-entity-PAYMENT-9797eee8-7a01-5efe-aaa5-fb9a4f14957c-attr-4-comment" x="0" y="0" transform="translate(150.7291259765625,101)" style="dominant-baseline: middle; font-size: 10.2px;">Foreign Key to RESERVATION</text><rect class="er attributeBoxOdd" x="0" y="112" width="54.04840087890625" height="23"/><text class="er entityLabel" id="text-entity-PAYMENT-9797eee8-7a01-5efe-aaa5-fb9a4f14957c-attr-5-type" x="0" y="0" transform="translate(5,123.5)" style="dominant-baseline: middle; font-size: 10.2px;">DateTime</text><rect class="er attributeBoxOdd" x="54.04840087890625" y="112" width="70" height="23"/><text class="er entityLabel" id="text-entity-PAYMENT-9797eee8-7a01-5efe-aaa5-fb9a4f14957c-attr-5-name" x="0" y="0" transform="translate(59.04840087890625,123.5)" style="dominant-baseline: middle; font-size: 10.2px;">createdAt</text><rect class="er attributeBoxOdd" x="124.04840087890625" y="112" width="21.68072509765625" height="23"/><text class="er entityLabel" id="text-entity-PAYMENT-9797eee8-7a01-5efe-aaa5-fb9a4f14957c-attr-5-key" x="0" y="0" transform="translate(129.04840087890625,123.5)" style="dominant-baseline: middle; font-size: 10.2px;"/><rect class="er attributeBoxOdd" x="145.7291259765625" y="112" width="183.40625" height="23"/><text class="er entityLabel" id="text-entity-PAYMENT-9797eee8-7a01-5efe-aaa5-fb9a4f14957c-attr-5-comment" x="0" y="0" transform="translate(150.7291259765625,123.5)" style="dominant-baseline: middle; font-size: 10.2px;">Default: now()</text><rect class="er attributeBoxEven" x="0" y="135" width="54.04840087890625" height="23"/><text class="er entityLabel" id="text-entity-PAYMENT-9797eee8-7a01-5efe-aaa5-fb9a4f14957c-attr-6-type" x="0" y="0" transform="translate(5,146.5)" style="dominant-baseline: middle; font-size: 10.2px;">DateTime</text><rect class="er attributeBoxEven" x="54.04840087890625" y="135" width="70" height="23"/><text class="er entityLabel" id="text-entity-PAYMENT-9797eee8-7a01-5efe-aaa5-fb9a4f14957c-attr-6-name" x="0" y="0" transform="translate(59.04840087890625,146.5)" style="dominant-baseline: middle; font-size: 10.2px;">updatedAt</text><rect class="er attributeBoxEven" x="124.04840087890625" y="135" width="21.68072509765625" height="23"/><text class="er entityLabel" id="text-entity-PAYMENT-9797eee8-7a01-5efe-aaa5-fb9a4f14957c-attr-6-key" x="0" y="0" transform="translate(129.04840087890625,146.5)" style="dominant-baseline: middle; font-size: 10.2px;"/><rect class="er attributeBoxEven" x="145.7291259765625" y="135" width="183.40625" height="23"/><text class="er entityLabel" id="text-entity-PAYMENT-9797eee8-7a01-5efe-aaa5-fb9a4f14957c-attr-6-comment" x="0" y="0" transform="translate(150.7291259765625,146.5)" style="dominant-baseline: middle; font-size: 10.2px;">Default: now()</text></g><rect class="er relationshipLabelBox" x="123.12469482421875" y="244.15753173828125" width="50.15625" height="14"/><text class="er relationshipLabel" id="rel1" x="148.20281982421875" y="251.15753173828125" style="text-anchor: middle; dominant-baseline: middle; font-size: 12px;">has many</text><rect class="er relationshipLabelBox" x="425.6238708496094" y="249.16558837890625" width="50.15625" height="14"/><text class="er relationshipLabel" id="rel2" x="450.7019958496094" y="256.16558837890625" style="text-anchor: middle; dominant-baseline: middle; font-size: 12px;">has many</text><rect class="er relationshipLabelBox" x="275.3818664550781" y="567" width="50.15625" height="14"/><text class="er relationshipLabel" id="rel3" x="300.4599914550781" y="574" style="text-anchor: middle; dominant-baseline: middle; font-size: 12px;">has many</text></svg>